<mxfile host="app.diagrams.net" modified="2021-11-01T16:42:25.356Z" agent="5.0 (Macintosh; Intel Mac OS X 10_15_7) AppleWebKit/605.1.15 (KHTML, like Gecko) Version/15.1 Safari/605.1.15" etag="eRmxT6rnhpcGdrAllUxQ" version="15.6.4" type="github">
  <diagram id="R2lEEEUBdFMjLlhIrx00" name="Page-1">
    <mxGraphModel dx="983" dy="569" grid="1" gridSize="10" guides="1" tooltips="1" connect="1" arrows="1" fold="1" page="1" pageScale="1" pageWidth="850" pageHeight="1100" math="0" shadow="0" extFonts="Permanent Marker^https://fonts.googleapis.com/css?family=Permanent+Marker">
      <root>
        <mxCell id="0" />
        <mxCell id="1" parent="0" />
        <mxCell id="_Q1is8lbrP2mtcxeuze1-1" value="EMPLOYEE" style="rounded=0;whiteSpace=wrap;html=1;fillColor=default;strokeColor=default;fontColor=default;" vertex="1" parent="1">
          <mxGeometry x="110" y="260" width="120" height="60" as="geometry" />
        </mxCell>
        <mxCell id="_Q1is8lbrP2mtcxeuze1-2" value="RESTUARANT" style="rounded=0;whiteSpace=wrap;html=1;fontColor=default;strokeColor=default;fillColor=default;" vertex="1" parent="1">
          <mxGeometry x="620" y="260" width="120" height="60" as="geometry" />
        </mxCell>
        <mxCell id="_Q1is8lbrP2mtcxeuze1-3" value="ORDERS" style="rhombus;whiteSpace=wrap;html=1;fontColor=default;strokeColor=default;fillColor=default;" vertex="1" parent="1">
          <mxGeometry x="355" y="250" width="140" height="80" as="geometry" />
        </mxCell>
        <mxCell id="_Q1is8lbrP2mtcxeuze1-5" value="COMPANY" style="rounded=0;whiteSpace=wrap;html=1;fontColor=default;strokeColor=default;fillColor=default;" vertex="1" parent="1">
          <mxGeometry x="365" y="460" width="120" height="60" as="geometry" />
        </mxCell>
        <mxCell id="_Q1is8lbrP2mtcxeuze1-8" value="" style="endArrow=none;html=1;rounded=0;labelBackgroundColor=default;fontColor=default;strokeColor=default;entryX=0;entryY=0.5;entryDx=0;entryDy=0;exitX=1;exitY=0.5;exitDx=0;exitDy=0;" edge="1" parent="1" source="_Q1is8lbrP2mtcxeuze1-1" target="_Q1is8lbrP2mtcxeuze1-3">
          <mxGeometry width="50" height="50" relative="1" as="geometry">
            <mxPoint x="250" y="330" as="sourcePoint" />
            <mxPoint x="300" y="280" as="targetPoint" />
          </mxGeometry>
        </mxCell>
        <mxCell id="_Q1is8lbrP2mtcxeuze1-9" value="" style="endArrow=none;html=1;rounded=0;labelBackgroundColor=default;fontColor=default;strokeColor=default;entryX=0;entryY=0.5;entryDx=0;entryDy=0;exitX=1;exitY=0.5;exitDx=0;exitDy=0;" edge="1" parent="1">
          <mxGeometry width="50" height="50" relative="1" as="geometry">
            <mxPoint x="495" y="289.66" as="sourcePoint" />
            <mxPoint x="620" y="289.66" as="targetPoint" />
          </mxGeometry>
        </mxCell>
        <mxCell id="_Q1is8lbrP2mtcxeuze1-10" value="WORKS_FOR" style="rhombus;whiteSpace=wrap;html=1;fontColor=default;strokeColor=default;fillColor=default;" vertex="1" parent="1">
          <mxGeometry x="100" y="400" width="140" height="80" as="geometry" />
        </mxCell>
        <mxCell id="_Q1is8lbrP2mtcxeuze1-11" value="COOPERATE" style="rhombus;whiteSpace=wrap;html=1;fontColor=default;strokeColor=default;fillColor=default;" vertex="1" parent="1">
          <mxGeometry x="610" y="400" width="140" height="80" as="geometry" />
        </mxCell>
        <mxCell id="_Q1is8lbrP2mtcxeuze1-12" value="" style="endArrow=none;html=1;rounded=0;labelBackgroundColor=default;fontColor=default;strokeColor=default;entryX=0.5;entryY=1;entryDx=0;entryDy=0;exitX=0.5;exitY=0;exitDx=0;exitDy=0;" edge="1" parent="1" source="_Q1is8lbrP2mtcxeuze1-10" target="_Q1is8lbrP2mtcxeuze1-1">
          <mxGeometry width="50" height="50" relative="1" as="geometry">
            <mxPoint x="160" y="390" as="sourcePoint" />
            <mxPoint x="210" y="340" as="targetPoint" />
          </mxGeometry>
        </mxCell>
        <mxCell id="_Q1is8lbrP2mtcxeuze1-13" value="" style="endArrow=none;html=1;rounded=0;labelBackgroundColor=default;fontColor=default;strokeColor=default;entryX=0.5;entryY=1;entryDx=0;entryDy=0;exitX=0;exitY=0.5;exitDx=0;exitDy=0;" edge="1" parent="1" source="_Q1is8lbrP2mtcxeuze1-5" target="_Q1is8lbrP2mtcxeuze1-10">
          <mxGeometry width="50" height="50" relative="1" as="geometry">
            <mxPoint x="270" y="520" as="sourcePoint" />
            <mxPoint x="320" y="470" as="targetPoint" />
          </mxGeometry>
        </mxCell>
        <mxCell id="_Q1is8lbrP2mtcxeuze1-14" value="" style="endArrow=none;html=1;rounded=0;labelBackgroundColor=default;fontColor=default;strokeColor=default;exitX=0.5;exitY=1;exitDx=0;exitDy=0;" edge="1" parent="1" source="_Q1is8lbrP2mtcxeuze1-11">
          <mxGeometry width="50" height="50" relative="1" as="geometry">
            <mxPoint x="680" y="500" as="sourcePoint" />
            <mxPoint x="485" y="490" as="targetPoint" />
          </mxGeometry>
        </mxCell>
        <mxCell id="_Q1is8lbrP2mtcxeuze1-16" value="" style="endArrow=none;html=1;rounded=0;labelBackgroundColor=default;fontColor=default;strokeColor=default;entryX=0.5;entryY=1;entryDx=0;entryDy=0;exitX=0.5;exitY=0;exitDx=0;exitDy=0;" edge="1" parent="1">
          <mxGeometry width="50" height="50" relative="1" as="geometry">
            <mxPoint x="679.6600000000001" y="400" as="sourcePoint" />
            <mxPoint x="679.6600000000001" y="320" as="targetPoint" />
          </mxGeometry>
        </mxCell>
        <mxCell id="_Q1is8lbrP2mtcxeuze1-17" value="N" style="text;html=1;align=center;verticalAlign=middle;resizable=0;points=[];autosize=1;strokeColor=none;fillColor=none;fontColor=default;" vertex="1" parent="1">
          <mxGeometry x="130" y="390" width="20" height="20" as="geometry" />
        </mxCell>
        <mxCell id="_Q1is8lbrP2mtcxeuze1-18" value="" style="endArrow=none;html=1;rounded=0;labelBackgroundColor=default;fontColor=default;strokeColor=default;entryX=0.5;entryY=1;entryDx=0;entryDy=0;exitX=0.427;exitY=0.06;exitDx=0;exitDy=0;exitPerimeter=0;" edge="1" parent="1" source="_Q1is8lbrP2mtcxeuze1-10">
          <mxGeometry width="50" height="50" relative="1" as="geometry">
            <mxPoint x="160" y="400" as="sourcePoint" />
            <mxPoint x="160" y="320" as="targetPoint" />
          </mxGeometry>
        </mxCell>
        <mxCell id="_Q1is8lbrP2mtcxeuze1-19" value="" style="endArrow=none;html=1;rounded=0;labelBackgroundColor=default;fontColor=default;strokeColor=default;exitX=0;exitY=0.5;exitDx=0;exitDy=0;entryX=0.609;entryY=0.888;entryDx=0;entryDy=0;entryPerimeter=0;" edge="1" parent="1" target="_Q1is8lbrP2mtcxeuze1-10">
          <mxGeometry width="50" height="50" relative="1" as="geometry">
            <mxPoint x="365" y="480" as="sourcePoint" />
            <mxPoint x="190" y="470" as="targetPoint" />
          </mxGeometry>
        </mxCell>
        <mxCell id="_Q1is8lbrP2mtcxeuze1-20" value="1" style="text;html=1;align=center;verticalAlign=middle;resizable=0;points=[];autosize=1;strokeColor=none;fillColor=none;fontColor=default;" vertex="1" parent="1">
          <mxGeometry x="170" y="480" width="20" height="20" as="geometry" />
        </mxCell>
      </root>
    </mxGraphModel>
  </diagram>
</mxfile>
